<!-- <h1>&nbsp;&nbsp;machine&nbsp;&nbsp;</h1> -->
<svg width="400px" height="90px">
  <title>machine</title> 
  <g transform="translate(-75,-845)">
    <path style="fill:none;stroke:#000000;stroke-width:1.0" d="m 146.02116,887.42941 -7.52568,0 0,-4.70355 5.64426,-5.64424 11.28851,0 8.46639,8.46637 0,33.86555 -17.87348,0 0,-31.98413 m -27.28058,0 -7.52567,0 0,-4.70355 5.64426,-5.64424 13.16993,0 5.64425,5.64424 0,36.68768 -16.93277,0 0,-31.98413 m -28.221275,-10.34779 17.873475,0 0,42.33192 -17.873475,0 0,-42.33192 m 109.122285,10.34779 -25.39915,0 0,-5.64426 5.64426,-4.70353 26.33986,0 11.28852,10.34779 0,31.98413 -17.87349,0 0,-31.98413 m -28.22128,14.11065 6.58497,-7.52568 18.81418,0 0,8.46639 -8.46637,0 0,6.58496 8.46637,0 0,4.70355 -4.70354,5.64426 -14.11064,0 -6.58497,-6.58497 0,-11.28851 m 74.31605,-24.45844 15.05135,0 10.3478,10.34779 0,6.58497 -17.87348,0 0,-6.58497 -7.52567,0 0,-10.34779 m -20.69561,10.34779 10.3478,-10.34779 7.52568,0 0,42.33192 -7.52568,0 -10.3478,-10.34781 0,-21.63632 m 20.69561,21.63632 7.52567,0 0,-4.70354 17.87348,0 0,4.70354 -10.3478,10.34781 -15.05135,0 0,-10.34781 m 32.92483,-47.97618 16.93277,0 0,58.32399 -16.93277,0 0,-58.32399 m 28.22127,26.33986 -8.46637,0 0,-5.64426 5.64426,-4.70353 9.40708,0 11.28852,10.34779 0,31.98413 -17.87349,0 0,-31.98413 m 25.39917,-27.28057 17.87347,0 0,11.28852 -17.87347,0 0,-11.28852 m 0,16.93278 17.87347,0 0,42.33192 -17.87347,0 0,-42.33192 m 54.56114,10.34779 -7.52567,0 0,-4.70355 5.64425,-5.64424 10.3478,0 9.4071,9.40708 0,32.92484 -17.87348,0 0,-31.98413 m -28.22128,-10.34779 17.87348,0 0,42.33192 -17.87348,0 0,-42.33192 m 74.31604,17.87347 8.46639,0 0,-7.52568 -8.46639,0 0,-10.34779 15.05135,0 10.34781,10.34779 0,15.05136 -25.39916,0 0,-7.52568 m -20.6956,-7.52568 11.2885,-10.34779 6.58497,0 0,42.33192 -6.58497,0 -11.2885,-10.34781 0,-21.63632 m 20.6956,21.63632 23.51774,0 0,4.70355 -4.70355,5.64426 -18.81419,0 0,-10.34781" />
  </g>
</svg>

